<mxfile host="app.diagrams.net" modified="2021-06-10T19:40:21.179Z" agent="5.0 (Windows NT 10.0; Win64; x64) AppleWebKit/537.36 (KHTML, like Gecko) Chrome/91.0.4472.77 Safari/537.36" etag="7kDFPWDX8Bd4nIU8lLng" version="14.7.7" type="github">
  <diagram id="v_Ac--7TbNxroUZyWk1t" name="Page-1">
    <mxGraphModel dx="2062" dy="3403" grid="1" gridSize="10" guides="1" tooltips="1" connect="1" arrows="1" fold="1" page="1" pageScale="1" pageWidth="827" pageHeight="1169" math="0" shadow="0">
      <root>
        <mxCell id="0" />
        <mxCell id="1" parent="0" />
        <mxCell id="MVU5MAOC0qs7tF-JlgG1-6" value="ESCOLA" style="shape=table;startSize=30;container=1;collapsible=1;childLayout=tableLayout;fixedRows=1;rowLines=0;fontStyle=1;align=center;resizeLast=1;" vertex="1" parent="1">
          <mxGeometry x="70" y="-1100" width="230" height="150" as="geometry" />
        </mxCell>
        <mxCell id="MVU5MAOC0qs7tF-JlgG1-7" value="" style="shape=partialRectangle;collapsible=0;dropTarget=0;pointerEvents=0;fillColor=none;top=0;left=0;bottom=1;right=0;points=[[0,0.5],[1,0.5]];portConstraint=eastwest;" vertex="1" parent="MVU5MAOC0qs7tF-JlgG1-6">
          <mxGeometry y="30" width="230" height="30" as="geometry" />
        </mxCell>
        <mxCell id="MVU5MAOC0qs7tF-JlgG1-8" value="PK" style="shape=partialRectangle;connectable=0;fillColor=none;top=0;left=0;bottom=0;right=0;fontStyle=1;overflow=hidden;" vertex="1" parent="MVU5MAOC0qs7tF-JlgG1-7">
          <mxGeometry width="30" height="30" as="geometry" />
        </mxCell>
        <mxCell id="MVU5MAOC0qs7tF-JlgG1-9" value="escola_id INT" style="shape=partialRectangle;connectable=0;fillColor=none;top=0;left=0;bottom=0;right=0;align=left;spacingLeft=6;fontStyle=5;overflow=hidden;" vertex="1" parent="MVU5MAOC0qs7tF-JlgG1-7">
          <mxGeometry x="30" width="200" height="30" as="geometry" />
        </mxCell>
        <mxCell id="MVU5MAOC0qs7tF-JlgG1-10" value="" style="shape=partialRectangle;collapsible=0;dropTarget=0;pointerEvents=0;fillColor=none;top=0;left=0;bottom=0;right=0;points=[[0,0.5],[1,0.5]];portConstraint=eastwest;" vertex="1" parent="MVU5MAOC0qs7tF-JlgG1-6">
          <mxGeometry y="60" width="230" height="30" as="geometry" />
        </mxCell>
        <mxCell id="MVU5MAOC0qs7tF-JlgG1-11" value="" style="shape=partialRectangle;connectable=0;fillColor=none;top=0;left=0;bottom=0;right=0;editable=1;overflow=hidden;" vertex="1" parent="MVU5MAOC0qs7tF-JlgG1-10">
          <mxGeometry width="30" height="30" as="geometry" />
        </mxCell>
        <mxCell id="MVU5MAOC0qs7tF-JlgG1-12" value="escola_nome VARCHAR(150)" style="shape=partialRectangle;connectable=0;fillColor=none;top=0;left=0;bottom=0;right=0;align=left;spacingLeft=6;overflow=hidden;" vertex="1" parent="MVU5MAOC0qs7tF-JlgG1-10">
          <mxGeometry x="30" width="200" height="30" as="geometry" />
        </mxCell>
        <mxCell id="MVU5MAOC0qs7tF-JlgG1-13" value="" style="shape=partialRectangle;collapsible=0;dropTarget=0;pointerEvents=0;fillColor=none;top=0;left=0;bottom=0;right=0;points=[[0,0.5],[1,0.5]];portConstraint=eastwest;" vertex="1" parent="MVU5MAOC0qs7tF-JlgG1-6">
          <mxGeometry y="90" width="230" height="30" as="geometry" />
        </mxCell>
        <mxCell id="MVU5MAOC0qs7tF-JlgG1-14" value="" style="shape=partialRectangle;connectable=0;fillColor=none;top=0;left=0;bottom=0;right=0;editable=1;overflow=hidden;" vertex="1" parent="MVU5MAOC0qs7tF-JlgG1-13">
          <mxGeometry width="30" height="30" as="geometry" />
        </mxCell>
        <mxCell id="MVU5MAOC0qs7tF-JlgG1-15" value="escola_endereco VARCHAR(150)" style="shape=partialRectangle;connectable=0;fillColor=none;top=0;left=0;bottom=0;right=0;align=left;spacingLeft=6;overflow=hidden;" vertex="1" parent="MVU5MAOC0qs7tF-JlgG1-13">
          <mxGeometry x="30" width="200" height="30" as="geometry" />
        </mxCell>
        <mxCell id="MVU5MAOC0qs7tF-JlgG1-16" value="" style="shape=partialRectangle;collapsible=0;dropTarget=0;pointerEvents=0;fillColor=none;top=0;left=0;bottom=0;right=0;points=[[0,0.5],[1,0.5]];portConstraint=eastwest;" vertex="1" parent="MVU5MAOC0qs7tF-JlgG1-6">
          <mxGeometry y="120" width="230" height="30" as="geometry" />
        </mxCell>
        <mxCell id="MVU5MAOC0qs7tF-JlgG1-17" value="" style="shape=partialRectangle;connectable=0;fillColor=none;top=0;left=0;bottom=0;right=0;editable=1;overflow=hidden;" vertex="1" parent="MVU5MAOC0qs7tF-JlgG1-16">
          <mxGeometry width="30" height="30" as="geometry" />
        </mxCell>
        <mxCell id="MVU5MAOC0qs7tF-JlgG1-18" value="" style="shape=partialRectangle;connectable=0;fillColor=none;top=0;left=0;bottom=0;right=0;align=left;spacingLeft=6;overflow=hidden;" vertex="1" parent="MVU5MAOC0qs7tF-JlgG1-16">
          <mxGeometry x="30" width="200" height="30" as="geometry" />
        </mxCell>
        <mxCell id="MVU5MAOC0qs7tF-JlgG1-19" value="ALUNO" style="shape=table;startSize=30;container=1;collapsible=1;childLayout=tableLayout;fixedRows=1;rowLines=0;fontStyle=1;align=center;resizeLast=1;" vertex="1" parent="1">
          <mxGeometry x="420" y="-1100" width="210" height="120" as="geometry" />
        </mxCell>
        <mxCell id="MVU5MAOC0qs7tF-JlgG1-20" value="" style="shape=partialRectangle;collapsible=0;dropTarget=0;pointerEvents=0;fillColor=none;top=0;left=0;bottom=1;right=0;points=[[0,0.5],[1,0.5]];portConstraint=eastwest;" vertex="1" parent="MVU5MAOC0qs7tF-JlgG1-19">
          <mxGeometry y="30" width="210" height="30" as="geometry" />
        </mxCell>
        <mxCell id="MVU5MAOC0qs7tF-JlgG1-21" value="PK" style="shape=partialRectangle;connectable=0;fillColor=none;top=0;left=0;bottom=0;right=0;fontStyle=1;overflow=hidden;" vertex="1" parent="MVU5MAOC0qs7tF-JlgG1-20">
          <mxGeometry width="30" height="30" as="geometry" />
        </mxCell>
        <mxCell id="MVU5MAOC0qs7tF-JlgG1-22" value="aluno id INT" style="shape=partialRectangle;connectable=0;fillColor=none;top=0;left=0;bottom=0;right=0;align=left;spacingLeft=6;fontStyle=5;overflow=hidden;" vertex="1" parent="MVU5MAOC0qs7tF-JlgG1-20">
          <mxGeometry x="30" width="180" height="30" as="geometry" />
        </mxCell>
        <mxCell id="MVU5MAOC0qs7tF-JlgG1-23" value="" style="shape=partialRectangle;collapsible=0;dropTarget=0;pointerEvents=0;fillColor=none;top=0;left=0;bottom=0;right=0;points=[[0,0.5],[1,0.5]];portConstraint=eastwest;" vertex="1" parent="MVU5MAOC0qs7tF-JlgG1-19">
          <mxGeometry y="60" width="210" height="30" as="geometry" />
        </mxCell>
        <mxCell id="MVU5MAOC0qs7tF-JlgG1-24" value="" style="shape=partialRectangle;connectable=0;fillColor=none;top=0;left=0;bottom=0;right=0;editable=1;overflow=hidden;" vertex="1" parent="MVU5MAOC0qs7tF-JlgG1-23">
          <mxGeometry width="30" height="30" as="geometry" />
        </mxCell>
        <mxCell id="MVU5MAOC0qs7tF-JlgG1-25" value="nome_aluno VARCHAR(100)" style="shape=partialRectangle;connectable=0;fillColor=none;top=0;left=0;bottom=0;right=0;align=left;spacingLeft=6;overflow=hidden;" vertex="1" parent="MVU5MAOC0qs7tF-JlgG1-23">
          <mxGeometry x="30" width="180" height="30" as="geometry" />
        </mxCell>
        <mxCell id="MVU5MAOC0qs7tF-JlgG1-29" value="" style="shape=partialRectangle;collapsible=0;dropTarget=0;pointerEvents=0;fillColor=none;top=0;left=0;bottom=0;right=0;points=[[0,0.5],[1,0.5]];portConstraint=eastwest;" vertex="1" parent="MVU5MAOC0qs7tF-JlgG1-19">
          <mxGeometry y="90" width="210" height="30" as="geometry" />
        </mxCell>
        <mxCell id="MVU5MAOC0qs7tF-JlgG1-30" value="FK" style="shape=partialRectangle;connectable=0;fillColor=none;top=0;left=0;bottom=0;right=0;editable=1;overflow=hidden;" vertex="1" parent="MVU5MAOC0qs7tF-JlgG1-29">
          <mxGeometry width="30" height="30" as="geometry" />
        </mxCell>
        <mxCell id="MVU5MAOC0qs7tF-JlgG1-31" value="escola_id INT" style="shape=partialRectangle;connectable=0;fillColor=none;top=0;left=0;bottom=0;right=0;align=left;spacingLeft=6;overflow=hidden;" vertex="1" parent="MVU5MAOC0qs7tF-JlgG1-29">
          <mxGeometry x="30" width="180" height="30" as="geometry" />
        </mxCell>
        <mxCell id="MVU5MAOC0qs7tF-JlgG1-32" value="" style="edgeStyle=entityRelationEdgeStyle;fontSize=12;html=1;endArrow=ERzeroToMany;endFill=1;entryX=0;entryY=0.5;entryDx=0;entryDy=0;" edge="1" parent="1" target="MVU5MAOC0qs7tF-JlgG1-29">
          <mxGeometry width="100" height="100" relative="1" as="geometry">
            <mxPoint x="300" y="-1060" as="sourcePoint" />
            <mxPoint x="400" y="-1160" as="targetPoint" />
          </mxGeometry>
        </mxCell>
        <mxCell id="MVU5MAOC0qs7tF-JlgG1-59" value="EVENTOS" style="shape=table;startSize=30;container=1;collapsible=1;childLayout=tableLayout;fixedRows=1;rowLines=0;fontStyle=1;align=center;resizeLast=1;" vertex="1" parent="1">
          <mxGeometry x="30" y="-770" width="200" height="160" as="geometry" />
        </mxCell>
        <mxCell id="MVU5MAOC0qs7tF-JlgG1-60" value="" style="shape=partialRectangle;collapsible=0;dropTarget=0;pointerEvents=0;fillColor=none;top=0;left=0;bottom=1;right=0;points=[[0,0.5],[1,0.5]];portConstraint=eastwest;" vertex="1" parent="MVU5MAOC0qs7tF-JlgG1-59">
          <mxGeometry y="30" width="200" height="30" as="geometry" />
        </mxCell>
        <mxCell id="MVU5MAOC0qs7tF-JlgG1-61" value="PK" style="shape=partialRectangle;connectable=0;fillColor=none;top=0;left=0;bottom=0;right=0;fontStyle=1;overflow=hidden;" vertex="1" parent="MVU5MAOC0qs7tF-JlgG1-60">
          <mxGeometry width="30" height="30" as="geometry" />
        </mxCell>
        <mxCell id="MVU5MAOC0qs7tF-JlgG1-62" value="evento_id INT" style="shape=partialRectangle;connectable=0;fillColor=none;top=0;left=0;bottom=0;right=0;align=left;spacingLeft=6;fontStyle=5;overflow=hidden;" vertex="1" parent="MVU5MAOC0qs7tF-JlgG1-60">
          <mxGeometry x="30" width="170" height="30" as="geometry" />
        </mxCell>
        <mxCell id="MVU5MAOC0qs7tF-JlgG1-63" value="" style="shape=partialRectangle;collapsible=0;dropTarget=0;pointerEvents=0;fillColor=none;top=0;left=0;bottom=0;right=0;points=[[0,0.5],[1,0.5]];portConstraint=eastwest;" vertex="1" parent="MVU5MAOC0qs7tF-JlgG1-59">
          <mxGeometry y="60" width="200" height="30" as="geometry" />
        </mxCell>
        <mxCell id="MVU5MAOC0qs7tF-JlgG1-64" value="" style="shape=partialRectangle;connectable=0;fillColor=none;top=0;left=0;bottom=0;right=0;editable=1;overflow=hidden;" vertex="1" parent="MVU5MAOC0qs7tF-JlgG1-63">
          <mxGeometry width="30" height="30" as="geometry" />
        </mxCell>
        <mxCell id="MVU5MAOC0qs7tF-JlgG1-65" value="nome_evento VARCHAR(100)" style="shape=partialRectangle;connectable=0;fillColor=none;top=0;left=0;bottom=0;right=0;align=left;spacingLeft=6;overflow=hidden;" vertex="1" parent="MVU5MAOC0qs7tF-JlgG1-63">
          <mxGeometry x="30" width="170" height="30" as="geometry" />
        </mxCell>
        <mxCell id="MVU5MAOC0qs7tF-JlgG1-66" value="" style="shape=partialRectangle;collapsible=0;dropTarget=0;pointerEvents=0;fillColor=none;top=0;left=0;bottom=0;right=0;points=[[0,0.5],[1,0.5]];portConstraint=eastwest;" vertex="1" parent="MVU5MAOC0qs7tF-JlgG1-59">
          <mxGeometry y="90" width="200" height="30" as="geometry" />
        </mxCell>
        <mxCell id="MVU5MAOC0qs7tF-JlgG1-67" value="" style="shape=partialRectangle;connectable=0;fillColor=none;top=0;left=0;bottom=0;right=0;editable=1;overflow=hidden;" vertex="1" parent="MVU5MAOC0qs7tF-JlgG1-66">
          <mxGeometry width="30" height="30" as="geometry" />
        </mxCell>
        <mxCell id="MVU5MAOC0qs7tF-JlgG1-68" value="data_evento DATE" style="shape=partialRectangle;connectable=0;fillColor=none;top=0;left=0;bottom=0;right=0;align=left;spacingLeft=6;overflow=hidden;" vertex="1" parent="MVU5MAOC0qs7tF-JlgG1-66">
          <mxGeometry x="30" width="170" height="30" as="geometry" />
        </mxCell>
        <mxCell id="MVU5MAOC0qs7tF-JlgG1-69" value="" style="shape=partialRectangle;collapsible=0;dropTarget=0;pointerEvents=0;fillColor=none;top=0;left=0;bottom=0;right=0;points=[[0,0.5],[1,0.5]];portConstraint=eastwest;" vertex="1" parent="MVU5MAOC0qs7tF-JlgG1-59">
          <mxGeometry y="120" width="200" height="30" as="geometry" />
        </mxCell>
        <mxCell id="MVU5MAOC0qs7tF-JlgG1-70" value="" style="shape=partialRectangle;connectable=0;fillColor=none;top=0;left=0;bottom=0;right=0;editable=1;overflow=hidden;" vertex="1" parent="MVU5MAOC0qs7tF-JlgG1-69">
          <mxGeometry width="30" height="30" as="geometry" />
        </mxCell>
        <mxCell id="MVU5MAOC0qs7tF-JlgG1-71" value="" style="shape=partialRectangle;connectable=0;fillColor=none;top=0;left=0;bottom=0;right=0;align=left;spacingLeft=6;overflow=hidden;" vertex="1" parent="MVU5MAOC0qs7tF-JlgG1-69">
          <mxGeometry x="30" width="170" height="30" as="geometry" />
        </mxCell>
        <mxCell id="MVU5MAOC0qs7tF-JlgG1-72" value="EVENTO PARTICIPADO" style="shape=table;startSize=30;container=1;collapsible=1;childLayout=tableLayout;fixedRows=1;rowLines=0;fontStyle=1;align=center;resizeLast=1;" vertex="1" parent="1">
          <mxGeometry x="324" y="-770" width="196" height="160" as="geometry" />
        </mxCell>
        <mxCell id="MVU5MAOC0qs7tF-JlgG1-73" value="" style="shape=partialRectangle;collapsible=0;dropTarget=0;pointerEvents=0;fillColor=none;top=0;left=0;bottom=1;right=0;points=[[0,0.5],[1,0.5]];portConstraint=eastwest;" vertex="1" parent="MVU5MAOC0qs7tF-JlgG1-72">
          <mxGeometry y="30" width="196" height="30" as="geometry" />
        </mxCell>
        <mxCell id="MVU5MAOC0qs7tF-JlgG1-74" value="PK" style="shape=partialRectangle;connectable=0;fillColor=none;top=0;left=0;bottom=0;right=0;fontStyle=1;overflow=hidden;" vertex="1" parent="MVU5MAOC0qs7tF-JlgG1-73">
          <mxGeometry width="30" height="30" as="geometry" />
        </mxCell>
        <mxCell id="MVU5MAOC0qs7tF-JlgG1-75" value="evento participado id INT" style="shape=partialRectangle;connectable=0;fillColor=none;top=0;left=0;bottom=0;right=0;align=left;spacingLeft=6;fontStyle=5;overflow=hidden;" vertex="1" parent="MVU5MAOC0qs7tF-JlgG1-73">
          <mxGeometry x="30" width="166" height="30" as="geometry" />
        </mxCell>
        <mxCell id="MVU5MAOC0qs7tF-JlgG1-76" value="" style="shape=partialRectangle;collapsible=0;dropTarget=0;pointerEvents=0;fillColor=none;top=0;left=0;bottom=0;right=0;points=[[0,0.5],[1,0.5]];portConstraint=eastwest;" vertex="1" parent="MVU5MAOC0qs7tF-JlgG1-72">
          <mxGeometry y="60" width="196" height="30" as="geometry" />
        </mxCell>
        <mxCell id="MVU5MAOC0qs7tF-JlgG1-77" value="" style="shape=partialRectangle;connectable=0;fillColor=none;top=0;left=0;bottom=0;right=0;editable=1;overflow=hidden;" vertex="1" parent="MVU5MAOC0qs7tF-JlgG1-76">
          <mxGeometry width="30" height="30" as="geometry" />
        </mxCell>
        <mxCell id="MVU5MAOC0qs7tF-JlgG1-78" value="rank_participantes INT" style="shape=partialRectangle;connectable=0;fillColor=none;top=0;left=0;bottom=0;right=0;align=left;spacingLeft=6;overflow=hidden;" vertex="1" parent="MVU5MAOC0qs7tF-JlgG1-76">
          <mxGeometry x="30" width="166" height="30" as="geometry" />
        </mxCell>
        <mxCell id="MVU5MAOC0qs7tF-JlgG1-79" value="" style="shape=partialRectangle;collapsible=0;dropTarget=0;pointerEvents=0;fillColor=none;top=0;left=0;bottom=0;right=0;points=[[0,0.5],[1,0.5]];portConstraint=eastwest;" vertex="1" parent="MVU5MAOC0qs7tF-JlgG1-72">
          <mxGeometry y="90" width="196" height="30" as="geometry" />
        </mxCell>
        <mxCell id="MVU5MAOC0qs7tF-JlgG1-80" value="FK" style="shape=partialRectangle;connectable=0;fillColor=none;top=0;left=0;bottom=0;right=0;editable=1;overflow=hidden;" vertex="1" parent="MVU5MAOC0qs7tF-JlgG1-79">
          <mxGeometry width="30" height="30" as="geometry" />
        </mxCell>
        <mxCell id="MVU5MAOC0qs7tF-JlgG1-81" value="evendo_id INT" style="shape=partialRectangle;connectable=0;fillColor=none;top=0;left=0;bottom=0;right=0;align=left;spacingLeft=6;overflow=hidden;" vertex="1" parent="MVU5MAOC0qs7tF-JlgG1-79">
          <mxGeometry x="30" width="166" height="30" as="geometry" />
        </mxCell>
        <mxCell id="MVU5MAOC0qs7tF-JlgG1-82" value="" style="shape=partialRectangle;collapsible=0;dropTarget=0;pointerEvents=0;fillColor=none;top=0;left=0;bottom=0;right=0;points=[[0,0.5],[1,0.5]];portConstraint=eastwest;" vertex="1" parent="MVU5MAOC0qs7tF-JlgG1-72">
          <mxGeometry y="120" width="196" height="30" as="geometry" />
        </mxCell>
        <mxCell id="MVU5MAOC0qs7tF-JlgG1-83" value="FK" style="shape=partialRectangle;connectable=0;fillColor=none;top=0;left=0;bottom=0;right=0;editable=1;overflow=hidden;" vertex="1" parent="MVU5MAOC0qs7tF-JlgG1-82">
          <mxGeometry width="30" height="30" as="geometry" />
        </mxCell>
        <mxCell id="MVU5MAOC0qs7tF-JlgG1-84" value="competidores_id INT" style="shape=partialRectangle;connectable=0;fillColor=none;top=0;left=0;bottom=0;right=0;align=left;spacingLeft=6;overflow=hidden;" vertex="1" parent="MVU5MAOC0qs7tF-JlgG1-82">
          <mxGeometry x="30" width="166" height="30" as="geometry" />
        </mxCell>
        <mxCell id="MVU5MAOC0qs7tF-JlgG1-85" value="COMPETIDORES" style="shape=table;startSize=30;container=1;collapsible=1;childLayout=tableLayout;fixedRows=1;rowLines=0;fontStyle=1;align=center;resizeLast=1;" vertex="1" parent="1">
          <mxGeometry x="610" y="-770" width="250" height="150" as="geometry" />
        </mxCell>
        <mxCell id="MVU5MAOC0qs7tF-JlgG1-86" value="" style="shape=partialRectangle;collapsible=0;dropTarget=0;pointerEvents=0;fillColor=none;top=0;left=0;bottom=1;right=0;points=[[0,0.5],[1,0.5]];portConstraint=eastwest;" vertex="1" parent="MVU5MAOC0qs7tF-JlgG1-85">
          <mxGeometry y="30" width="250" height="30" as="geometry" />
        </mxCell>
        <mxCell id="MVU5MAOC0qs7tF-JlgG1-87" value="PK" style="shape=partialRectangle;connectable=0;fillColor=none;top=0;left=0;bottom=0;right=0;fontStyle=1;overflow=hidden;" vertex="1" parent="MVU5MAOC0qs7tF-JlgG1-86">
          <mxGeometry width="30" height="30" as="geometry" />
        </mxCell>
        <mxCell id="MVU5MAOC0qs7tF-JlgG1-88" value="competidores id INT" style="shape=partialRectangle;connectable=0;fillColor=none;top=0;left=0;bottom=0;right=0;align=left;spacingLeft=6;fontStyle=5;overflow=hidden;" vertex="1" parent="MVU5MAOC0qs7tF-JlgG1-86">
          <mxGeometry x="30" width="220" height="30" as="geometry" />
        </mxCell>
        <mxCell id="MVU5MAOC0qs7tF-JlgG1-89" value="" style="shape=partialRectangle;collapsible=0;dropTarget=0;pointerEvents=0;fillColor=none;top=0;left=0;bottom=0;right=0;points=[[0,0.5],[1,0.5]];portConstraint=eastwest;" vertex="1" parent="MVU5MAOC0qs7tF-JlgG1-85">
          <mxGeometry y="60" width="250" height="30" as="geometry" />
        </mxCell>
        <mxCell id="MVU5MAOC0qs7tF-JlgG1-90" value="" style="shape=partialRectangle;connectable=0;fillColor=none;top=0;left=0;bottom=0;right=0;editable=1;overflow=hidden;" vertex="1" parent="MVU5MAOC0qs7tF-JlgG1-89">
          <mxGeometry width="30" height="30" as="geometry" />
        </mxCell>
        <mxCell id="MVU5MAOC0qs7tF-JlgG1-91" value="nome _competidor VARCHAR(100)" style="shape=partialRectangle;connectable=0;fillColor=none;top=0;left=0;bottom=0;right=0;align=left;spacingLeft=6;overflow=hidden;" vertex="1" parent="MVU5MAOC0qs7tF-JlgG1-89">
          <mxGeometry x="30" width="220" height="30" as="geometry" />
        </mxCell>
        <mxCell id="MVU5MAOC0qs7tF-JlgG1-92" value="" style="shape=partialRectangle;collapsible=0;dropTarget=0;pointerEvents=0;fillColor=none;top=0;left=0;bottom=0;right=0;points=[[0,0.5],[1,0.5]];portConstraint=eastwest;" vertex="1" parent="MVU5MAOC0qs7tF-JlgG1-85">
          <mxGeometry y="90" width="250" height="30" as="geometry" />
        </mxCell>
        <mxCell id="MVU5MAOC0qs7tF-JlgG1-93" value="" style="shape=partialRectangle;connectable=0;fillColor=none;top=0;left=0;bottom=0;right=0;editable=1;overflow=hidden;" vertex="1" parent="MVU5MAOC0qs7tF-JlgG1-92">
          <mxGeometry width="30" height="30" as="geometry" />
        </mxCell>
        <mxCell id="MVU5MAOC0qs7tF-JlgG1-94" value="" style="shape=partialRectangle;connectable=0;fillColor=none;top=0;left=0;bottom=0;right=0;align=left;spacingLeft=6;overflow=hidden;" vertex="1" parent="MVU5MAOC0qs7tF-JlgG1-92">
          <mxGeometry x="30" width="220" height="30" as="geometry" />
        </mxCell>
        <mxCell id="MVU5MAOC0qs7tF-JlgG1-95" value="" style="shape=partialRectangle;collapsible=0;dropTarget=0;pointerEvents=0;fillColor=none;top=0;left=0;bottom=0;right=0;points=[[0,0.5],[1,0.5]];portConstraint=eastwest;" vertex="1" parent="MVU5MAOC0qs7tF-JlgG1-85">
          <mxGeometry y="120" width="250" height="30" as="geometry" />
        </mxCell>
        <mxCell id="MVU5MAOC0qs7tF-JlgG1-96" value="" style="shape=partialRectangle;connectable=0;fillColor=none;top=0;left=0;bottom=0;right=0;editable=1;overflow=hidden;" vertex="1" parent="MVU5MAOC0qs7tF-JlgG1-95">
          <mxGeometry width="30" height="30" as="geometry" />
        </mxCell>
        <mxCell id="MVU5MAOC0qs7tF-JlgG1-97" value="" style="shape=partialRectangle;connectable=0;fillColor=none;top=0;left=0;bottom=0;right=0;align=left;spacingLeft=6;overflow=hidden;" vertex="1" parent="MVU5MAOC0qs7tF-JlgG1-95">
          <mxGeometry x="30" width="220" height="30" as="geometry" />
        </mxCell>
        <mxCell id="MVU5MAOC0qs7tF-JlgG1-98" value="" style="edgeStyle=entityRelationEdgeStyle;fontSize=12;html=1;endArrow=ERzeroToMany;endFill=1;entryX=0;entryY=0.5;entryDx=0;entryDy=0;exitX=1;exitY=0.667;exitDx=0;exitDy=0;exitPerimeter=0;" edge="1" parent="1" source="MVU5MAOC0qs7tF-JlgG1-60" target="MVU5MAOC0qs7tF-JlgG1-79">
          <mxGeometry width="100" height="100" relative="1" as="geometry">
            <mxPoint x="210" y="-730" as="sourcePoint" />
            <mxPoint x="310" y="-830" as="targetPoint" />
          </mxGeometry>
        </mxCell>
        <mxCell id="MVU5MAOC0qs7tF-JlgG1-99" value="" style="edgeStyle=entityRelationEdgeStyle;fontSize=12;html=1;endArrow=ERzeroToMany;endFill=1;entryX=1;entryY=0.5;entryDx=0;entryDy=0;exitX=0;exitY=0.5;exitDx=0;exitDy=0;" edge="1" parent="1" source="MVU5MAOC0qs7tF-JlgG1-86" target="MVU5MAOC0qs7tF-JlgG1-82">
          <mxGeometry width="100" height="100" relative="1" as="geometry">
            <mxPoint x="500" y="-490" as="sourcePoint" />
            <mxPoint x="590" y="-590" as="targetPoint" />
          </mxGeometry>
        </mxCell>
        <mxCell id="MVU5MAOC0qs7tF-JlgG1-100" value="CASE 1" style="rounded=0;whiteSpace=wrap;html=1;" vertex="1" parent="1">
          <mxGeometry x="60" y="-1180" width="120" height="60" as="geometry" />
        </mxCell>
        <mxCell id="MVU5MAOC0qs7tF-JlgG1-101" value="CLIENTES" style="shape=table;startSize=30;container=1;collapsible=1;childLayout=tableLayout;fixedRows=1;rowLines=0;fontStyle=1;align=center;resizeLast=1;" vertex="1" parent="1">
          <mxGeometry x="50" y="-470" width="240" height="160" as="geometry" />
        </mxCell>
        <mxCell id="MVU5MAOC0qs7tF-JlgG1-102" value="" style="shape=partialRectangle;collapsible=0;dropTarget=0;pointerEvents=0;fillColor=none;top=0;left=0;bottom=1;right=0;points=[[0,0.5],[1,0.5]];portConstraint=eastwest;" vertex="1" parent="MVU5MAOC0qs7tF-JlgG1-101">
          <mxGeometry y="30" width="240" height="30" as="geometry" />
        </mxCell>
        <mxCell id="MVU5MAOC0qs7tF-JlgG1-103" value="PK" style="shape=partialRectangle;connectable=0;fillColor=none;top=0;left=0;bottom=0;right=0;fontStyle=1;overflow=hidden;" vertex="1" parent="MVU5MAOC0qs7tF-JlgG1-102">
          <mxGeometry width="30" height="30" as="geometry" />
        </mxCell>
        <mxCell id="MVU5MAOC0qs7tF-JlgG1-104" value="cliente_id INT" style="shape=partialRectangle;connectable=0;fillColor=none;top=0;left=0;bottom=0;right=0;align=left;spacingLeft=6;fontStyle=5;overflow=hidden;" vertex="1" parent="MVU5MAOC0qs7tF-JlgG1-102">
          <mxGeometry x="30" width="210" height="30" as="geometry" />
        </mxCell>
        <mxCell id="MVU5MAOC0qs7tF-JlgG1-105" value="" style="shape=partialRectangle;collapsible=0;dropTarget=0;pointerEvents=0;fillColor=none;top=0;left=0;bottom=0;right=0;points=[[0,0.5],[1,0.5]];portConstraint=eastwest;" vertex="1" parent="MVU5MAOC0qs7tF-JlgG1-101">
          <mxGeometry y="60" width="240" height="30" as="geometry" />
        </mxCell>
        <mxCell id="MVU5MAOC0qs7tF-JlgG1-106" value="" style="shape=partialRectangle;connectable=0;fillColor=none;top=0;left=0;bottom=0;right=0;editable=1;overflow=hidden;" vertex="1" parent="MVU5MAOC0qs7tF-JlgG1-105">
          <mxGeometry width="30" height="30" as="geometry" />
        </mxCell>
        <mxCell id="MVU5MAOC0qs7tF-JlgG1-107" value="nome_cliente_VARCHAR(100)" style="shape=partialRectangle;connectable=0;fillColor=none;top=0;left=0;bottom=0;right=0;align=left;spacingLeft=6;overflow=hidden;" vertex="1" parent="MVU5MAOC0qs7tF-JlgG1-105">
          <mxGeometry x="30" width="210" height="30" as="geometry" />
        </mxCell>
        <mxCell id="MVU5MAOC0qs7tF-JlgG1-108" value="" style="shape=partialRectangle;collapsible=0;dropTarget=0;pointerEvents=0;fillColor=none;top=0;left=0;bottom=0;right=0;points=[[0,0.5],[1,0.5]];portConstraint=eastwest;" vertex="1" parent="MVU5MAOC0qs7tF-JlgG1-101">
          <mxGeometry y="90" width="240" height="30" as="geometry" />
        </mxCell>
        <mxCell id="MVU5MAOC0qs7tF-JlgG1-109" value="" style="shape=partialRectangle;connectable=0;fillColor=none;top=0;left=0;bottom=0;right=0;editable=1;overflow=hidden;" vertex="1" parent="MVU5MAOC0qs7tF-JlgG1-108">
          <mxGeometry width="30" height="30" as="geometry" />
        </mxCell>
        <mxCell id="MVU5MAOC0qs7tF-JlgG1-110" value="endereco_cliente VARCHAR(150)" style="shape=partialRectangle;connectable=0;fillColor=none;top=0;left=0;bottom=0;right=0;align=left;spacingLeft=6;overflow=hidden;" vertex="1" parent="MVU5MAOC0qs7tF-JlgG1-108">
          <mxGeometry x="30" width="210" height="30" as="geometry" />
        </mxCell>
        <mxCell id="MVU5MAOC0qs7tF-JlgG1-111" value="" style="shape=partialRectangle;collapsible=0;dropTarget=0;pointerEvents=0;fillColor=none;top=0;left=0;bottom=0;right=0;points=[[0,0.5],[1,0.5]];portConstraint=eastwest;" vertex="1" parent="MVU5MAOC0qs7tF-JlgG1-101">
          <mxGeometry y="120" width="240" height="30" as="geometry" />
        </mxCell>
        <mxCell id="MVU5MAOC0qs7tF-JlgG1-112" value="" style="shape=partialRectangle;connectable=0;fillColor=none;top=0;left=0;bottom=0;right=0;editable=1;overflow=hidden;" vertex="1" parent="MVU5MAOC0qs7tF-JlgG1-111">
          <mxGeometry width="30" height="30" as="geometry" />
        </mxCell>
        <mxCell id="MVU5MAOC0qs7tF-JlgG1-113" value="cpf_cliente CHAR(15)" style="shape=partialRectangle;connectable=0;fillColor=none;top=0;left=0;bottom=0;right=0;align=left;spacingLeft=6;overflow=hidden;" vertex="1" parent="MVU5MAOC0qs7tF-JlgG1-111">
          <mxGeometry x="30" width="210" height="30" as="geometry" />
        </mxCell>
        <mxCell id="MVU5MAOC0qs7tF-JlgG1-114" value="CARTOES" style="shape=table;startSize=30;container=1;collapsible=1;childLayout=tableLayout;fixedRows=1;rowLines=0;fontStyle=1;align=center;resizeLast=1;" vertex="1" parent="1">
          <mxGeometry x="420" y="-470" width="200" height="280" as="geometry" />
        </mxCell>
        <mxCell id="MVU5MAOC0qs7tF-JlgG1-115" value="" style="shape=partialRectangle;collapsible=0;dropTarget=0;pointerEvents=0;fillColor=none;top=0;left=0;bottom=1;right=0;points=[[0,0.5],[1,0.5]];portConstraint=eastwest;" vertex="1" parent="MVU5MAOC0qs7tF-JlgG1-114">
          <mxGeometry y="30" width="200" height="30" as="geometry" />
        </mxCell>
        <mxCell id="MVU5MAOC0qs7tF-JlgG1-116" value="PK" style="shape=partialRectangle;connectable=0;fillColor=none;top=0;left=0;bottom=0;right=0;fontStyle=1;overflow=hidden;" vertex="1" parent="MVU5MAOC0qs7tF-JlgG1-115">
          <mxGeometry width="30" height="30" as="geometry" />
        </mxCell>
        <mxCell id="MVU5MAOC0qs7tF-JlgG1-117" value="cartao_id INT" style="shape=partialRectangle;connectable=0;fillColor=none;top=0;left=0;bottom=0;right=0;align=left;spacingLeft=6;fontStyle=5;overflow=hidden;" vertex="1" parent="MVU5MAOC0qs7tF-JlgG1-115">
          <mxGeometry x="30" width="170" height="30" as="geometry" />
        </mxCell>
        <mxCell id="MVU5MAOC0qs7tF-JlgG1-118" value="" style="shape=partialRectangle;collapsible=0;dropTarget=0;pointerEvents=0;fillColor=none;top=0;left=0;bottom=0;right=0;points=[[0,0.5],[1,0.5]];portConstraint=eastwest;" vertex="1" parent="MVU5MAOC0qs7tF-JlgG1-114">
          <mxGeometry y="60" width="200" height="30" as="geometry" />
        </mxCell>
        <mxCell id="MVU5MAOC0qs7tF-JlgG1-119" value="" style="shape=partialRectangle;connectable=0;fillColor=none;top=0;left=0;bottom=0;right=0;editable=1;overflow=hidden;" vertex="1" parent="MVU5MAOC0qs7tF-JlgG1-118">
          <mxGeometry width="30" height="30" as="geometry" />
        </mxCell>
        <mxCell id="MVU5MAOC0qs7tF-JlgG1-120" value="numero cartao CHAR(16)" style="shape=partialRectangle;connectable=0;fillColor=none;top=0;left=0;bottom=0;right=0;align=left;spacingLeft=6;overflow=hidden;" vertex="1" parent="MVU5MAOC0qs7tF-JlgG1-118">
          <mxGeometry x="30" width="170" height="30" as="geometry" />
        </mxCell>
        <mxCell id="MVU5MAOC0qs7tF-JlgG1-124" value="" style="shape=partialRectangle;collapsible=0;dropTarget=0;pointerEvents=0;fillColor=none;top=0;left=0;bottom=0;right=0;points=[[0,0.5],[1,0.5]];portConstraint=eastwest;" vertex="1" parent="MVU5MAOC0qs7tF-JlgG1-114">
          <mxGeometry y="90" width="200" height="60" as="geometry" />
        </mxCell>
        <mxCell id="MVU5MAOC0qs7tF-JlgG1-125" value="FK" style="shape=partialRectangle;connectable=0;fillColor=none;top=0;left=0;bottom=0;right=0;editable=1;overflow=hidden;" vertex="1" parent="MVU5MAOC0qs7tF-JlgG1-124">
          <mxGeometry width="30" height="60" as="geometry" />
        </mxCell>
        <mxCell id="MVU5MAOC0qs7tF-JlgG1-126" value="cliente_id INT" style="shape=partialRectangle;connectable=0;fillColor=none;top=0;left=0;bottom=0;right=0;align=left;spacingLeft=6;overflow=hidden;" vertex="1" parent="MVU5MAOC0qs7tF-JlgG1-124">
          <mxGeometry x="30" width="170" height="60" as="geometry" />
        </mxCell>
        <mxCell id="MVU5MAOC0qs7tF-JlgG1-127" value="" style="edgeStyle=entityRelationEdgeStyle;fontSize=12;html=1;endArrow=ERmandOne;startArrow=ERmandOne;entryX=0;entryY=0.5;entryDx=0;entryDy=0;exitX=1;exitY=0.5;exitDx=0;exitDy=0;" edge="1" parent="1" source="MVU5MAOC0qs7tF-JlgG1-102" target="MVU5MAOC0qs7tF-JlgG1-124">
          <mxGeometry width="100" height="100" relative="1" as="geometry">
            <mxPoint x="260" y="-420" as="sourcePoint" />
            <mxPoint x="360" y="-520" as="targetPoint" />
          </mxGeometry>
        </mxCell>
        <mxCell id="MVU5MAOC0qs7tF-JlgG1-128" value="codigo_seguranca CHAR(3)" style="text;html=1;align=center;verticalAlign=middle;resizable=0;points=[];autosize=1;strokeColor=none;" vertex="1" parent="1">
          <mxGeometry x="450" y="-320" width="170" height="20" as="geometry" />
        </mxCell>
        <mxCell id="MVU5MAOC0qs7tF-JlgG1-130" value="vencimento_fatura DATE" style="text;html=1;align=center;verticalAlign=middle;resizable=0;points=[];autosize=1;strokeColor=none;" vertex="1" parent="1">
          <mxGeometry x="450" y="-280" width="150" height="20" as="geometry" />
        </mxCell>
        <mxCell id="MVU5MAOC0qs7tF-JlgG1-131" value="limete_cartao DECIMAL(10,2)" style="text;html=1;align=center;verticalAlign=middle;resizable=0;points=[];autosize=1;strokeColor=none;" vertex="1" parent="1">
          <mxGeometry x="445" y="-240" width="180" height="20" as="geometry" />
        </mxCell>
      </root>
    </mxGraphModel>
  </diagram>
</mxfile>
